<svg xmlns="http://www.w3.org/2000/svg" width="512" height="512" viewBox="0 0 512 512">
  <rect width="512" height="512" rx="64" fill="#F8FAFC"/>
  <rect x="6" y="6" width="500" height="500" rx="58" fill="none" stroke="#E2E8F0" stroke-width="12"/>
  <g transform="translate(77.428575,84.571432) scale(14.285714)" fill="none" stroke="#0F172A"
     stroke-width="2" stroke-linecap="round" stroke-linejoin="round">
    <path d="M19 7V4a1 1 0 0 0-1-1H5a2 2 0 0 0 0 4h15a1 1 0 0 1 1 1v4h-3a2 2 0 0 0 0 4h3a1 1 0 0 0 1-1v-2a1 1 0 0 0-1-1"/>
    <path d="M3 5v14a2 2 0 0 0 2 2h15a1 1 0 0 0 1-1v-4"/>
  </g>
</svg>
